
<svg xmlns="http://www.w3.org/2000/svg" xmlns:xlink="http://www.w3.org/1999/xlink" width="97.40690994262695" height="74.69493103027344" viewBox="0 0 97.40690994262695 74.69493103027344" fill="none">
<path d="M31.2801 41.8484C40.4624 40.1463 45.8984 41.1482 53.1757 43.4123C60.453 45.6765 63.1093 35.7928 71.9434 43.4123C77.8034 48.9804 76.7146 48.1043 82.8911 48.1043C90.5361 49.0048 91.4831 58.4142 89.147 60.616C95.5283 62.2469 97.8918 70.6891 93.8389 73.1278L14.0765 73.1278L7.8206 73.1278L1.56487 73.1278C1.56487 73.1278 1.46822 61.0169 7.8206 57.4881C14.173 53.9593 18.7684 57.4881 18.7684 57.4881C18.7684 57.4881 22.0979 43.5504 31.2801 41.8484Z" stroke="rgba(39, 53, 86, 1)" stroke-width="3.129" stroke-linejoin="round" stroke-linecap="round"    fill="#4B9770" >
</path>
<path d="M37.5316 73.1304L28.1516 73.1304L28.1516 38.7204L37.5316 41.8504L37.5316 73.1304ZM68.8132 73.1304L56.3032 73.1304L57.8632 38.7204L68.8132 41.8504L68.8132 73.1304Z" stroke="rgba(39, 53, 86, 1)" stroke-width="3.129"  stroke-linecap="round"  fill-rule="evenodd"  fill="#BB805F" >
</path>
<path d="M37.5328 73.1304L37.5328 41.8504L28.1528 38.7204L28.1528 73.1304L37.5328 73.1304ZM68.8142 73.1304L68.8142 41.8504L57.8642 38.7204L56.3042 73.1304L68.8142 73.1304Z">
</path>
<g mask="url(#mask-d104f039-78e3-4b32-ba10-0a0466c88f8d)" opacity="0.3">
<path d="M37.5316 55.4404L28.1516 55.4404L28.1516 38.7204L37.5316 41.8504L37.5316 55.4404ZM68.8109 53.4404L57.2009 53.3804L57.8709 38.7204L68.8109 41.8504L68.8109 53.4404Z" fill-rule="evenodd"  fill="#5B6575" >
</path>
</g>
<path     fill="#59B78A"  d="M52.7889 40.3178C59.957 48.6542 72.6216 42.7394 77.8789 40.3178C98.0713 36.4391 93.1368 17.7495 83.2489 15.7478C82.0151 5.09573 72.1807 0.759989 63.5389 5.21777C45.5797 -3.01231 43.8289 15.7478 43.8289 15.7478C23.2095 31.6117 43.4714 42.7052 52.7889 40.3178">
</path>
<path fill-rule="evenodd"  fill="rgba(39, 53, 86, 1)"  d="M77.8789 40.3178C98.0713 36.4391 93.1368 17.7495 83.2489 15.7478C82.0151 5.09573 72.1807 0.759989 63.5389 5.21777C45.5797 -3.01231 43.8289 15.7478 43.8289 15.7478C23.2095 31.6117 43.4714 42.7052 52.7889 40.3178C59.9082 48.5974 72.4494 42.8193 77.7705 40.3677L77.8789 40.3178ZM51.693 43.684Q50.2516 43.8391 48.6481 43.7183Q46.1262 43.5284 43.5786 42.6884Q40.9665 41.8271 38.7457 40.4175Q36.3105 38.8717 34.6623 36.8602Q32.7768 34.5591 32.1095 31.8787Q31.3737 28.9227 32.1946 25.8158Q33.7674 19.8638 40.9205 14.058Q41.0982 13.0973 41.3644 12.1215Q42.4063 8.30255 44.4252 5.54715Q45.8132 3.65276 47.5955 2.38382Q49.6777 0.901367 52.1999 0.33742Q57.1828 -0.77676 63.4904 1.78815Q64.7364 1.26318 66.0246 0.926276Q68.0118 0.406554 70.0126 0.35649Q72.0072 0.30658 73.9178 0.725506Q75.8406 1.14711 77.5783 2.02147Q79.3401 2.90796 80.8194 4.21356Q82.3245 5.54191 83.4626 7.23892Q85.2809 9.9501 86.0161 13.3259Q87.2763 13.8352 88.4477 14.6337Q90.4473 15.9969 91.943 18.0341Q93.4067 20.0276 94.19 22.3965Q94.9982 24.8405 94.9728 27.3604Q94.9457 30.0519 93.9676 32.5198Q92.9238 35.1538 90.8908 37.2841Q88.7721 39.5042 85.7082 41.0311Q82.6928 42.5338 78.8501 43.3153Q77.5349 43.9195 76.7087 44.2787Q75.1346 44.9629 73.7144 45.4912Q69.8099 46.9436 66.4262 47.4601Q61.8819 48.1539 58.1642 47.1927Q54.447 46.2316 51.693 43.684Z">
</path>
<path     fill="#B8E58C"  d="M9.71548 36.6865C12.2155 45.974 23.4555 44.9765 23.4555 44.9765C29.7114 52.4054 40.7674 47.1347 45.3555 44.9765C62.9777 41.5202 58.6747 24.8604 50.0455 23.0765C48.9687 13.5843 40.3874 9.7239 32.8455 13.6965C17.1722 6.36231 16.7155 23.0765 16.7155 23.0765C16.7155 23.0765 7.21548 27.399 9.71548 36.6865">
</path>
<path fill-rule="evenodd"  fill="rgba(39, 53, 86, 1)"  d="M23.4555 44.9765C23.4555 44.9765 12.2155 45.974 9.71548 36.6865C7.21548 27.399 16.7155 23.0765 16.7155 23.0765C16.7155 23.0765 17.1722 6.36231 32.8455 13.6965C40.3874 9.7239 48.9687 13.5843 50.0455 23.0765C58.6747 24.8604 62.9777 41.5202 45.3555 44.9765L45.2635 45.0198C40.6213 47.2039 29.67 52.3562 23.4555 44.9765ZM46.346 47.9683Q45.2276 48.4927 44.5179 48.8076Q43.1334 49.4222 41.8826 49.8973Q38.4312 51.2083 35.4312 51.6762Q31.3702 52.3096 28.0336 51.4292Q24.6322 50.5317 22.1315 48.1345Q21.8339 48.128 21.5126 48.1128Q18.9551 47.992 16.6461 47.318Q13.2614 46.3299 10.873 44.2691Q7.80319 41.6204 6.69403 37.4999Q5.59749 33.4262 6.76952 29.7036Q7.69725 26.7569 9.97328 24.2824Q11.5317 22.588 13.5692 21.2707Q13.6667 21.2077 13.762 21.1474Q13.8453 20.5626 13.9624 19.9715Q14.6518 16.4913 16.2623 13.9577Q17.3923 12.18 18.9231 10.9793Q20.7295 9.56254 22.9875 9.02431Q27.2704 8.00341 32.7993 10.2607Q35.5711 9.09832 38.4828 9.0234Q40.2795 8.97718 42.0011 9.36227Q43.734 9.74988 45.2994 10.5538Q46.8841 11.3677 48.2132 12.5652Q49.5616 13.7801 50.5796 15.3299Q52.1541 17.727 52.8155 20.6892Q53.8586 21.1422 54.8323 21.8201Q56.6309 23.0725 57.9721 24.9389Q59.2789 26.7572 59.9772 28.9151Q60.6966 31.1385 60.6736 33.4308Q60.649 35.8816 59.7757 38.1311Q58.8418 40.5367 57.0222 42.4838Q55.1268 44.512 52.3896 45.905Q49.7264 47.2603 46.346 47.9683Z">
</path>
<g opacity="0.2">
<path d="M23.4603 44.9763C15.3289 47.1039 -2.35428 37.2175 15.6404 23.0807C15.6404 23.0807 16.4891 13.8106 23.394 12.1046C25.7618 11.5196 20.0635 16.1528 21.8963 21.5168C18.6944 21.123 12.0005 32.7581 19.6975 38.4356C24.295 41.8268 21.8048 42.6394 23.4603 44.9763L23.4603 44.9763Z"   fill="#5B6575" >
</path>
</g>
<path d="M60.9951 19.1714C60.9951 20.467 60.2949 21.5174 59.4311 21.5174C58.5673 21.5174 57.8671 20.467 57.8671 19.1714C57.8671 17.8758 58.5673 16.8255 59.4311 16.8255C60.2949 16.8255 60.9951 17.8758 60.9951 19.1714ZM78.1988 19.1714C78.1988 20.467 77.4986 21.5174 76.6348 21.5174C75.771 21.5174 75.0708 20.467 75.0708 19.1714C75.0708 17.8758 75.771 16.8255 76.6348 16.8255C77.4986 16.8255 78.1988 17.8758 78.1988 19.1714Z" fill-rule="evenodd"  fill="#273556" >
</path>
<path d="M23.4603 26.9907C23.4603 28.2863 22.7601 29.3366 21.8963 29.3366C21.0326 29.3366 20.3324 28.2863 20.3324 26.9907C20.3324 25.695 21.0326 24.6447 21.8963 24.6447C22.7601 24.6447 23.4603 25.695 23.4603 26.9907ZM42.2279 26.9907C42.2279 28.2863 41.5277 29.3366 40.6639 29.3366C39.8002 29.3366 39.1 28.2863 39.1 26.9907C39.1 25.695 39.8002 24.6447 40.6639 24.6447C41.5277 24.6447 42.2279 25.695 42.2279 26.9907Z" fill-rule="evenodd"  fill="#273556" >
</path>
<path    stroke="rgba(39, 53, 86, 1)" stroke-width="2.4"  stroke-linecap="round"  d="M26.5882 27.7726C26.5882 27.7726 29.2146 32.6888 32.8441 27.7726">
</path>
<path    stroke="rgba(39, 53, 86, 1)" stroke-width="2.4"  stroke-linecap="round"  d="M65.0461 21.3454C65.0461 21.3454 68.2146 26.6888 71.527 21.3454">
</path>
<defs>
<mask id="mask-d104f039-78e3-4b32-ba10-0a0466c88f8d" style="mask-type:alpha" maskUnits="userSpaceOnUse">
<path fill="white" d="M37.5328 73.1304L37.5328 41.8504L28.1528 38.7204L28.1528 73.1304L37.5328 73.1304ZM68.8142 73.1304L68.8142 41.8504L57.8642 38.7204L56.3042 73.1304L68.8142 73.1304Z">
</path>
</mask>
</defs>
</svg>
